<?xml version="1.0" encoding="utf-8"?>
<!-- Generator: Adobe Illustrator 26.0.1, SVG Export Plug-In . SVG Version: 6.00 Build 0)  -->
<svg version="1.1" id="Layer_1" xmlns="http://www.w3.org/2000/svg" xmlns:xlink="http://www.w3.org/1999/xlink" x="0px" y="0px"
	 viewBox="0 0 245.6 52" style="enable-background:new 0 0 245.6 52;" xml:space="preserve">
<style type="text/css">
	.st0{clip-path:url(#SVGID_00000119104456277617259670000017323681422405701294_);}
</style>
<g>
	<defs>
		<rect id="SVGID_1_" x="-0.3" width="51" height="52"/>
	</defs>
	<clipPath id="SVGID_00000023240487595548652170000005352841701518506678_">
		<use xlink:href="#SVGID_1_"  style="overflow:visible;"/>
	</clipPath>
	<g style="clip-path:url(#SVGID_00000023240487595548652170000005352841701518506678_);">
		<path d="M50.7,24C50.7,24,50.7,24,50.7,24C50.7,23.9,50.7,23.9,50.7,24l-5.1-13.6c0,0,0,0,0,0c0,0,0,0,0-0.1l-11.2-9
			c0,0,0,0-0.1,0c0,0,0,0,0,0L25.2,0c0,0,0,0-0.1,0l-4.3,1.3h-0.1c0,0,0,0-0.1,0l-0.1,0.1L9.8,4.4c0,0,0,0,0,0c0,0,0,0,0,0
			c0,0,0,0,0,0c0,0,0,0,0,0L0.3,16.8c0,0,0,0,0,0c0,0,0,0,0,0c0,0,0,0,0,0c0,0,0,0,0,0c0,0,0,0,0,0l-0.6,10.9c0,0,0,0,0,0l0.9,5.5
			c0,0,0,0,0,0c0,0,0,0,0,0c0,0,0,0,0,0L5,41.8c0,0,0,0,0,0l5.1,4.6c0,0,0,0,0,0l5.9,4.1c0,0,0,0,0.1,0l9.3,1.5c0,0,0,0,0,0
			c0,0,0,0,0,0c0,0,0,0,0,0v0c0,0,0,0,0,0l15.2-4.5c0,0,0,0,0,0c0,0,0,0,0,0c0,0,0,0,0,0l9.2-12.4c0,0,0,0,0-0.1c0,0,0,0,0,0
			L50.7,24z M49.7,34.9l-4,1l4.7-11.1L49.7,34.9z M33.5,33.3l-14.7-5.3l11.1-8.1L33.5,33.3z M29.9,19.5l-11.1-7.4L33.2,8L29.9,19.5z
			 M29.7,19.7l-11.1,8.1V12.4L29.7,19.7z M18.4,27.9L5.8,21.6l12.6-9.2V27.9z M21.1,42.9l-12-6.8l9.3-7.7L21.1,42.9z M18.7,28.3
			l14.7,5.3l-12,9.4L18.7,28.3z M33.6,33.8L34.4,45l-12.7-1.9L33.6,33.8z M33.8,33.2l-3.6-13.3l12.3,1.2L33.8,33.2z M42.6,21.3
			l2.7,14.6l-11.4-2.5L42.6,21.3z M45.5,35.7l-2.7-14.4l7.5,2.9L45.5,35.7z M42.6,20.7L33.7,8l11.6,2.6L42.6,20.7z M42.4,20.8
			l-12.2-1.2l3.3-11.5L42.4,20.8z M18.7,11.9l2.1-10.3L33,7.7L18.7,11.9z M18.4,11.9L9,8.7l11.5-7.1L18.4,11.9z M18.2,12.1L5.8,21.3
			l3-12.4L18.2,12.1z M5.5,21.4l-4.8-4.4l7.8-7.7L5.5,21.4z M8.6,8.7l-6.8,6.8L9.5,5.2L8.6,8.7z M5.4,21.7l-4.5,11L0.6,17.2
			L5.4,21.7z M5.5,22.1l3.2,13.8l-7.8-2.7L5.5,22.1z M5.7,21.9l12.5,6.2L9,35.9L5.7,21.9z M20.9,43.1l-10.6,3L9,36.4L20.9,43.1z
			 M21.2,43.3l4,8.3l-14.5-5.3L21.2,43.3z M25.5,51.7l-4-8.3l12.7,1.9L25.5,51.7z M34.6,44.9l-0.8-11.2l11.3,2.5L34.6,44.9z
			 M45.1,36.6l-4.6,10.6l-5.8-2.1L45.1,36.6z M45.6,36.2l3.9-1l-8.3,11.1L45.6,36.2z M42.8,20.9l2.7-10.1l4.8,12.9L42.8,20.9z
			 M34.4,1.7L45,10.2L33.6,7.7L34.4,1.7z M25.2,0.3l7.1,1H21.8L25.2,0.3z M34.2,1.5l-0.8,6l-12.1-6H34.2z M8.9,8.5l1-3.8l9.7-2.8
			L8.9,8.5z M0,27.8l0.4-7.1l0.2,10.7L0,27.8z M5.2,41.7l-3.5-6.9l7.7,10.6L5.2,41.7z M1.1,33.6l7.7,2.7l1.3,9.6L1.1,33.6z
			 M11.2,46.8l12.9,4.7l-7.9-1.2L11.2,46.8z M34.5,45.3l5.6,2.1l-14,4.2L34.5,45.3z"/>
	</g>
</g>
<g>
	<g transform="translate(135.320917, 202.416757)">
		<g>
			<path d="M-77.9-162.7V-193h19.8v4.5h-14.2v8.3h12.9v4.3h-12.9v8.7h14.2v4.5H-77.9z"/>
		</g>
	</g>
</g>
<g>
	<g transform="translate(159.106266, 202.416757)">
		<g>
			<path d="M-69.9-162.7V-193h5.5l14.2,21.3V-193h5.5v30.3h-5.5L-64.4-184v21.3H-69.9z"/>
		</g>
	</g>
</g>
<g>
	<g transform="translate(187.531665, 202.416757)">
		<g>
			<path d="M-60.5-162.7V-193h11.2c2.4,0,4.4,0.4,6,1.2c1.6,0.8,2.8,1.9,3.5,3.3c0.8,1.4,1.2,3,1.2,4.8c0,1.7-0.4,3.2-1.1,4.6
				c-0.8,1.4-1.9,2.5-3.5,3.4c-1.6,0.8-3.6,1.3-6.1,1.3h-5.7v11.7H-60.5z M-54.9-178.9h5.3c1.9,0,3.3-0.4,4.2-1.3
				c0.8-0.8,1.3-2,1.3-3.5c0-1.5-0.4-2.7-1.3-3.5c-0.8-0.9-2.2-1.3-4.2-1.3h-5.3V-178.9z"/>
		</g>
	</g>
</g>
<g>
	<g transform="translate(212.258009, 202.416757)">
		<g>
			<path d="M-52.2-162.7V-193h19.8v4.5h-14.2v8.3h12.9v4.3h-12.9v8.7h14.2v4.5H-52.2z"/>
		</g>
	</g>
</g>
<g>
	<g transform="translate(236.043355, 202.416757)">
		<g>
			<path d="M-44.3-162.7V-193h19.8v4.5h-14.2v8.3h12.9v4.3h-12.9v8.7h14.2v4.5H-44.3z"/>
		</g>
	</g>
</g>
<g>
	<g transform="translate(259.828701, 202.416757)">
		<g>
			<path d="M-36.4-162.7V-193h11.1c2.4,0,4.4,0.4,6,1.2c1.6,0.8,2.8,1.9,3.5,3.3c0.8,1.4,1.2,3,1.2,4.7c0,1.8-0.5,3.5-1.5,5.1
				c-1,1.5-2.5,2.6-4.5,3.3l6.3,12.7h-6.4l-5.6-11.9h-4.6v11.9H-36.4z M-30.8-178.7h5.2c1.8,0,3.2-0.4,4.1-1.3
				c0.9-0.9,1.3-2.1,1.3-3.6c0-1.4-0.4-2.6-1.3-3.5c-0.8-0.9-2.2-1.3-4.1-1.3h-5.2V-178.7z"/>
		</g>
	</g>
</g>
</svg>
